<?xml version="1.0" standalone="no"?><svg xmlns="http://www.w3.org/2000/svg" viewBox="0 0 1440 320"><path fill="#273036" fill-opacity="1" d="M0,192L24,202.7C48,213,96,235,144,256C192,277,240,299,288,272C336,245,384,171,432,128C480,85,528,75,576,85.3C624,96,672,128,720,149.3C768,171,816,181,864,202.7C912,224,960,256,1008,229.3C1056,203,1104,117,1152,117.3C1200,117,1248,203,1296,229.3C1344,256,1392,224,1416,208L1440,192L1440,320L1416,320C1392,320,1344,320,1296,320C1248,320,1200,320,1152,320C1104,320,1056,320,1008,320C960,320,912,320,864,320C816,320,768,320,720,320C672,320,624,320,576,320C528,320,480,320,432,320C384,320,336,320,288,320C240,320,192,320,144,320C96,320,48,320,24,320L0,320Z"></path></svg>